<svg width="2850" height="1711" xmlns="http://www.w3.org/2000/svg" xmlns:xlink="http://www.w3.org/1999/xlink" overflow="hidden"><defs><clipPath id="clip0"><rect x="2237" y="546" width="2850" height="1711"/></clipPath><clipPath id="clip1"><rect x="2237" y="546" width="2848" height="1708"/></clipPath><clipPath id="clip2"><rect x="2410" y="716" width="2628" height="1436"/></clipPath><clipPath id="clip3"><rect x="2237" y="546" width="2848" height="1708"/></clipPath><clipPath id="clip4"><rect x="2237" y="546" width="2848" height="1708"/></clipPath><clipPath id="clip5"><rect x="2410" y="716" width="2624" height="1432"/></clipPath><clipPath id="clip6"><rect x="2237" y="546" width="2848" height="1708"/></clipPath><clipPath id="clip7"><rect x="2237" y="546" width="2848" height="1708"/></clipPath><clipPath id="clip8"><rect x="2237" y="546" width="2848" height="1708"/></clipPath><clipPath id="clip9"><rect x="2237" y="546" width="2848" height="1708"/></clipPath><clipPath id="clip10"><rect x="2237" y="546" width="2848" height="1708"/></clipPath><clipPath id="clip11"><rect x="2237" y="546" width="2848" height="1708"/></clipPath><clipPath id="clip12"><rect x="2237" y="546" width="2848" height="1708"/></clipPath><clipPath id="clip13"><rect x="2237" y="546" width="2848" height="1708"/></clipPath><clipPath id="clip14"><rect x="2237" y="546" width="2848" height="1708"/></clipPath><clipPath id="clip15"><rect x="2237" y="546" width="2848" height="1708"/></clipPath><clipPath id="clip16"><rect x="2237" y="546" width="2848" height="1708"/></clipPath><clipPath id="clip17"><rect x="2237" y="546" width="2848" height="1708"/></clipPath><clipPath id="clip18"><rect x="2237" y="546" width="2848" height="1708"/></clipPath><clipPath id="clip19"><rect x="2237" y="546" width="2848" height="1708"/></clipPath><clipPath id="clip20"><rect x="2237" y="546" width="2848" height="1708"/></clipPath><clipPath id="clip21"><rect x="2237" y="546" width="2848" height="1708"/></clipPath><clipPath id="clip22"><rect x="2237" y="546" width="2848" height="1708"/></clipPath><clipPath id="clip23"><rect x="2237" y="546" width="2848" height="1708"/></clipPath><clipPath id="clip24"><rect x="2237" y="546" width="2848" height="1708"/></clipPath><clipPath id="clip25"><rect x="2237" y="546" width="2848" height="1708"/></clipPath><clipPath id="clip26"><rect x="2237" y="546" width="2848" height="1708"/></clipPath><clipPath id="clip27"><rect x="2237" y="546" width="2848" height="1708"/></clipPath></defs><g clip-path="url(#clip0)" transform="translate(-2237 -546)"><rect x="2238" y="547" width="2847" height="1708" fill="#FFFFFF"/><g clip-path="url(#clip1)"><path d="M2410.5 1969.56 5034.5 1969.56M2410.5 1790.56 5034.5 1790.56M2410.5 1611.55 5034.5 1611.55M2410.5 1432.55 5034.5 1432.55M2410.5 1253.54 5034.5 1253.54M2410.5 1074.54 5034.5 1074.54M2410.5 895.53 5034.5 895.53M2410.5 716.5 5034.5 716.5" stroke="#D9D9D9" stroke-width="3.4375" stroke-linejoin="round" stroke-miterlimit="10" fill="none"/></g><g clip-path="url(#clip2)"><path d="M2485.08 1415.05 2554.08 1415.05 2554.08 2149 2485.08 2149ZM2704.09 1406.05 2773.09 1406.05 2773.09 2149 2704.09 2149ZM2923.1 1397.05 2991.1 1397.05 2991.1 2149 2923.1 2149ZM3141.1 1468.05 3210.11 1468.05 3210.11 2149 3141.1 2149ZM3360.11 1658.05 3429.11 1658.05 3429.11 2149 3360.11 2149ZM3579.12 896.029 3647.12 896.029 3647.12 2149 3579.12 2149ZM3798.12 860.028 3866.13 860.028 3866.13 2149 3798.12 2149ZM4016.13 842.028 4085.13 842.028 4085.13 2149 4016.13 2149ZM4235.14 815.027 4303.14 815.027 4303.14 2149 4235.14 2149ZM4454.15 1254.04 4522.15 1254.04 4522.15 2149 4454.15 2149ZM4672.15 1200.04 4741.16 1200.04 4741.16 2149 4672.15 2149ZM4891.16 1146.04 4960.16 1146.04 4960.16 2149 4891.16 2149Z" fill="#4472C4"/></g><g clip-path="url(#clip3)"><path d="M2410.5 2148.5 5034.5 2148.5" stroke="#D9D9D9" stroke-width="3.4375" stroke-linejoin="round" stroke-miterlimit="10" fill="none" fill-rule="evenodd"/></g><g clip-path="url(#clip4)"><path d="M2410.5 2148.5 2410.5 2161.5M2628.59 2148.5 2628.59 2161.5M2847.59 2148.5 2847.59 2161.5M3066.6 2148.5 3066.6 2161.5M3285.61 2148.5 3285.61 2161.5M3503.61 2148.5 3503.61 2161.5M3722.62 2148.5 3722.62 2161.5M3941.63 2148.5 3941.63 2161.5M4159.64 2148.5 4159.64 2161.5M4378.64 2148.5 4378.64 2161.5M4597.65 2148.5 4597.65 2161.5M4815.66 2148.5 4815.66 2161.5M5034.5 2148.5 5034.5 2161.5" stroke="#D9D9D9" stroke-width="3.4375" stroke-linejoin="round" stroke-miterlimit="10" fill="none"/></g><g clip-path="url(#clip5)"><path d="M0 0 2406 444" stroke="#4472C4" stroke-width="6.875" stroke-linecap="round" stroke-linejoin="round" stroke-miterlimit="10" stroke-dasharray="0 13.75" fill="none" fill-rule="evenodd" transform="matrix(1 0 0 -1 2519.5 1417.5)"/></g><g clip-path="url(#clip6)"><text fill="#595959" font-family="Calibri,Calibri_MSFontService,sans-serif" font-weight="400" font-size="41" transform="matrix(1 0 0 1 2351.2 2160)">0</text></g><g clip-path="url(#clip7)"><text fill="#595959" font-family="Calibri,Calibri_MSFontService,sans-serif" font-weight="400" font-size="41" transform="matrix(1 0 0 1 2267.6 1981)">10000</text></g><g clip-path="url(#clip8)"><text fill="#595959" font-family="Calibri,Calibri_MSFontService,sans-serif" font-weight="400" font-size="41" transform="matrix(1 0 0 1 2267.6 1802)">20000</text></g><g clip-path="url(#clip9)"><text fill="#595959" font-family="Calibri,Calibri_MSFontService,sans-serif" font-weight="400" font-size="41" transform="matrix(1 0 0 1 2267.6 1623)">30000</text></g><g clip-path="url(#clip10)"><text fill="#595959" font-family="Calibri,Calibri_MSFontService,sans-serif" font-weight="400" font-size="41" transform="matrix(1 0 0 1 2267.6 1444)">40000</text></g><g clip-path="url(#clip11)"><text fill="#595959" font-family="Calibri,Calibri_MSFontService,sans-serif" font-weight="400" font-size="41" transform="matrix(1 0 0 1 2267.6 1265)">50000</text></g><g clip-path="url(#clip12)"><text fill="#595959" font-family="Calibri,Calibri_MSFontService,sans-serif" font-weight="400" font-size="41" transform="matrix(1 0 0 1 2267.6 1086)">60000</text></g><g clip-path="url(#clip13)"><text fill="#595959" font-family="Calibri,Calibri_MSFontService,sans-serif" font-weight="400" font-size="41" transform="matrix(1 0 0 1 2267.6 907)">70000</text></g><g clip-path="url(#clip14)"><text fill="#595959" font-family="Calibri,Calibri_MSFontService,sans-serif" font-weight="400" font-size="41" transform="matrix(1 0 0 1 2267.6 728)">80000</text></g><g clip-path="url(#clip15)"><text fill="#595959" font-family="Calibri,Calibri_MSFontService,sans-serif" font-weight="400" font-size="41" transform="matrix(1 0 0 1 2465.21 2214)">Jan-21</text></g><g clip-path="url(#clip16)"><text fill="#595959" font-family="Calibri,Calibri_MSFontService,sans-serif" font-weight="400" font-size="41" transform="matrix(1 0 0 1 2680.63 2214)">Feb-21</text></g><g clip-path="url(#clip17)"><text fill="#595959" font-family="Calibri,Calibri_MSFontService,sans-serif" font-weight="400" font-size="41" transform="matrix(1 0 0 1 2895.2 2214)">Mar-21</text></g><g clip-path="url(#clip18)"><text fill="#595959" font-family="Calibri,Calibri_MSFontService,sans-serif" font-weight="400" font-size="41" transform="matrix(1 0 0 1 3118.64 2214)">Apr-21</text></g><g clip-path="url(#clip19)"><text fill="#595959" font-family="Calibri,Calibri_MSFontService,sans-serif" font-weight="400" font-size="41" transform="matrix(1 0 0 1 3330.46 2214)">May-21</text></g><g clip-path="url(#clip20)"><text fill="#595959" font-family="Calibri,Calibri_MSFontService,sans-serif" font-weight="400" font-size="41" transform="matrix(1 0 0 1 3557.76 2214)">Jun-21</text></g><g clip-path="url(#clip21)"><text fill="#595959" font-family="Calibri,Calibri_MSFontService,sans-serif" font-weight="400" font-size="41" transform="matrix(1 0 0 1 3782.57 2214)">Jul-21</text></g><g clip-path="url(#clip22)"><text fill="#595959" font-family="Calibri,Calibri_MSFontService,sans-serif" font-weight="400" font-size="41" transform="matrix(1 0 0 1 3990.94 2214)">Aug-21</text></g><g clip-path="url(#clip23)"><text fill="#595959" font-family="Calibri,Calibri_MSFontService,sans-serif" font-weight="400" font-size="41" transform="matrix(1 0 0 1 4211.54 2214)">Sep-21</text></g><g clip-path="url(#clip24)"><text fill="#595959" font-family="Calibri,Calibri_MSFontService,sans-serif" font-weight="400" font-size="41" transform="matrix(1 0 0 1 4431.54 2214)">Oct-21</text></g><g clip-path="url(#clip25)"><text fill="#595959" font-family="Calibri,Calibri_MSFontService,sans-serif" font-weight="400" font-size="41" transform="matrix(1 0 0 1 4646.02 2214)">Nov-21</text></g><g clip-path="url(#clip26)"><text fill="#595959" font-family="Calibri,Calibri_MSFontService,sans-serif" font-weight="400" font-size="41" transform="matrix(1 0 0 1 4866.56 2214)">Dec-21</text></g><g clip-path="url(#clip27)"><text fill="#595959" font-family="Calibri,Calibri_MSFontService,sans-serif" font-weight="400" font-size="64" transform="matrix(1 0 0 1 3595.52 642)">Sales</text></g><rect x="2238.5" y="547.5" width="2847" height="1708" stroke="#D9D9D9" stroke-width="3.4375" stroke-linejoin="round" stroke-miterlimit="10" fill="none"/></g></svg>